<?xml version="1.0" encoding="utf-8"?>
<svg version="1.1" id="Capa_1" x="0px" y="0px" viewBox="0 0 310 310" style="enable-background:new 0 0 310 310;" xmlns="http://www.w3.org/2000/svg">
  <g/>
  <g/>
  <g/>
  <g/>
  <g/>
  <g/>
  <g/>
  <g/>
  <g/>
  <g/>
  <g/>
  <g/>
  <g/>
  <g/>
  <g/>
  <title id="title5806">Calendrier</title>
  <g id="g-1" transform="matrix(1, 0, 0, 1, -258.679382, -249.598282)">
    <g id="g5747" transform="matrix(1.2163 0 0 1.2163 -63.526 -60.441)">
      <path id="path4947" d="m451.94 318.42c6.3173-1.6786 5.8364 4.8356 2.2089 6.4382l-8.3895-3.6136z" style="stroke-linejoin:round;stroke-dashoffset:3.003;stroke:#000000;stroke-linecap:round;stroke-width:.57554;fill:#ffffff"/>
      <path id="path4947-8" d="m435.18 313.42c6.3173-1.6786 5.8364 4.8356 2.2089 6.4382l-8.3895-3.6136z" style="stroke-linejoin:round;stroke-dashoffset:3.003;stroke:#000000;stroke-linecap:round;stroke-width:.57554;fill:#ffffff"/>
      <path id="path5475" style="stroke-linejoin:round;stroke-dashoffset:3.003;stroke:#000000;stroke-linecap:round;stroke-width:.57554;fill:#ffffff" d="m418.55 308.49c6.3173-1.6786 5.8364 4.8356 2.2089 6.4382l-8.3895-3.6136z"/>
      <path id="path5477" d="m402.37 303.39c6.3173-1.6786 5.8364 4.8356 2.2089 6.4382l-8.3895-3.6136z" style="stroke-linejoin:round;stroke-dashoffset:3.003;stroke:#000000;stroke-linecap:round;stroke-width:.57554;fill:#ffffff"/>
      <path id="path5479" style="stroke-linejoin:round;stroke-dashoffset:3.003;stroke:#000000;stroke-linecap:round;stroke-width:.57554;fill:#ffffff" d="m386.18 298.55c6.5697-1.8048 6.0525 4.7276 2.2089 6.4382l-8.3895-3.6136z"/>
      <path id="path5481" d="m370.17 293.89c6.5697-1.8048 6.0525 4.7276 2.2089 6.4382l-8.3895-3.6136z" style="stroke-linejoin:round;stroke-dashoffset:3.003;stroke:#000000;stroke-linecap:round;stroke-width:.57554;fill:#ffffff"/>
      <path id="path5483" style="stroke-linejoin:round;stroke-dashoffset:3.003;stroke:#000000;stroke-linecap:round;stroke-width:.57554;fill:#ffffff" d="m354.08 289.05c6.5697-1.8048 6.0525 4.7276 2.2089 6.4382l-8.3895-3.6136z"/>
      <path id="path5485" d="m338.51 284.21c6.5697-1.8048 6.0525 4.7276 2.2089 6.4382l-8.3895-3.6136z" style="stroke-linejoin:round;stroke-dashoffset:3.003;stroke:#000000;stroke-linecap:round;stroke-width:.57554;fill:#ffffff"/>
      <path id="path4520" d="m316.95 280.38c0.99514-3.9806-22.391 129.12-22.391 129.12l150.27 63.689 26.869-146.29z" style="stroke-linejoin:round;stroke-dashoffset:3.003;stroke:#000000;stroke-linecap:round;stroke-width:1.3155;fill:#ffffff"/>
      <path id="path4899" d="m322.92 288.09c-3.9002 31.879-10.341 65.404-16.917 99.017l131.86 54.73c11.223-36.019 16.789-74.866 22.888-113.45z" style="stroke-linejoin:round;stroke-dashoffset:3.003;stroke:#000000;stroke-linecap:round;stroke-width:.82220;fill:#ffffff"/>
      <g id="g4901" style="stroke-width:0.7" transform="translate(.70367 -2.111)">
        <path id="path5541" style="stroke-linejoin:round;stroke-dashoffset:1.5;stroke:#000000;stroke-linecap:round;stroke-width:.57554;fill:#ffffff" d="m326.16 292.45-0.01 3.637 12.704 4.087 0.36215-4.1437z"/>
        <path id="path5543" style="stroke-linejoin:round;stroke-dashoffset:1.5;stroke:#000000;stroke-linecap:round;stroke-width:.57554;fill:#ffffff" d="m341.44 286.17-11.51-3.15c-4.177 1.1865-5.4772 7.1801-1.6963 11.205l9.561 3.388c-4.3099-5.0614-1.7679-9.46 3.6448-11.444z"/>
      </g>
      <g id="g4905" style="stroke-width:0.7" transform="translate(17.372 3.1135)">
        <path id="path4907" style="stroke-linejoin:round;stroke-dashoffset:1.5;stroke:#000000;stroke-linecap:round;stroke-width:.57554;fill:#ffffff" d="m326.16 292.45-0.25854 3.1394 12.953 4.5846 0.36215-4.1437z"/>
        <path id="path4909" style="stroke-linejoin:round;stroke-dashoffset:1.5;stroke:#000000;stroke-linecap:round;stroke-width:.57554;fill:#ffffff" d="m340.94 286.17-10.141-3.1487c-4.177 1.1865-6.348 7.1801-2.5671 11.205l9.561 3.388c-4.3099-5.0614-2.2655-9.46 3.1473-11.444z"/>
      </g>
      <g id="g4911" style="stroke-width:0.7" transform="translate(32.797 7.5916)">
        <path id="path4913" style="stroke-linejoin:round;stroke-dashoffset:1.5;stroke:#000000;stroke-linecap:round;stroke-width:.57554;fill:#ffffff" d="m326.16 292.45-0.25854 3.637 12.953 4.087 0.36215-4.1437z"/>
        <path id="path4915" style="stroke-linejoin:round;stroke-dashoffset:1.5;stroke:#000000;stroke-linecap:round;stroke-width:.57554;fill:#ffffff" d="m340.94 286.17-10.587-2.8484c-4.177 1.1865-5.9019 6.8798-2.121 10.904l9.561 3.388c-4.3099-5.0614-2.2655-9.46 3.1473-11.444z"/>
      </g>
      <g id="g4917" style="stroke-width:0.7" transform="translate(49.217 12.567)">
        <path id="path4919" style="stroke-linejoin:round;stroke-dashoffset:1.5;stroke:#000000;stroke-linecap:round;stroke-width:.57554;fill:#ffffff" d="m326.16 292.45-0.25854 3.3882 12.953 4.3358 0.36215-4.1437z"/>
        <path id="path4921" style="stroke-linejoin:round;stroke-dashoffset:1.5;stroke:#000000;stroke-linecap:round;stroke-width:.57554;fill:#ffffff" d="m340.77 286.08-10.059-2.915c-4.177 1.1865-6.2538 7.0344-2.4729 11.059l9.561 3.388c-4.3099-5.0614-2.4414-9.548 2.9714-11.532z"/>
      </g>
      <g id="g4923" style="stroke-width:0.7" transform="translate(65.212 17.279)">
        <path id="path4925" style="stroke-linejoin:round;stroke-dashoffset:1.5;stroke:#000000;stroke-linecap:round;stroke-width:.57554;fill:#ffffff" d="m326.16 292.45-0.25854 3.637 12.953 4.087 0.36215-4.1437z"/>
        <path id="path4927" style="stroke-linejoin:round;stroke-dashoffset:1.5;stroke:#000000;stroke-linecap:round;stroke-width:.57554;fill:#ffffff" d="m340.94 286.17-10.163-3.1487c-4.177 1.1865-6.3266 7.1801-2.5457 11.205l9.561 3.388c-4.3099-5.0614-2.2655-9.46 3.1473-11.444z"/>
      </g>
      <g id="g4929" style="stroke-width:0.7" transform="translate(81.061 22.768)">
        <path id="path4931" style="stroke-linejoin:round;stroke-dashoffset:1.5;stroke:#000000;stroke-linecap:round;stroke-width:.57554;fill:#ffffff" d="m326.16 292.45-0.75612 3.3882 13.451 4.3358 0.36215-4.1437z"/>
        <path id="path4933" style="stroke-linejoin:round;stroke-dashoffset:1.5;stroke:#000000;stroke-linecap:round;stroke-width:.57554;fill:#ffffff" d="m340.77 285.64-10.587-3.1788c-4.177 1.1865-5.726 7.738-1.9451 11.762l9.561 3.388c-4.3099-5.0614-2.4414-9.9878 2.9714-11.972z"/>
      </g>
      <g id="g4935" style="stroke-width:0.7" transform="translate(96.984 27.246)">
        <path id="path4937" style="stroke-linejoin:round;stroke-dashoffset:1.5;stroke:#000000;stroke-linecap:round;stroke-width:.57554;fill:#ffffff" d="m326.16 292.45-0.33141 3.2424 13.026 4.4815 0.36215-4.1437z"/>
        <path id="path4939" style="stroke-linejoin:round;stroke-dashoffset:1.5;stroke:#000000;stroke-linecap:round;stroke-width:.57554;fill:#ffffff" d="m341.12 285.99-10.411-3.1788c-4.177 1.1865-6.2538 7.3862-2.4729 11.411l9.561 3.388c-4.3099-5.0614-2.0896-9.6359 3.3232-11.62z"/>
      </g>
      <g id="g4941" style="stroke-width:0.7" transform="translate(113.4 31.973)">
        <path id="path4943" style="stroke-linejoin:round;stroke-dashoffset:1.5;stroke:#000000;stroke-linecap:round;stroke-width:.57554;fill:#ffffff" d="m326.16 292.45-0.50733 3.5943 13.202 4.1297 0.36215-4.1437z"/>
        <path id="path4945" style="stroke-linejoin:round;stroke-dashoffset:1.5;stroke:#000000;stroke-linecap:round;stroke-width:.57554;fill:#ffffff" d="m340.94 286.17-10.411-3.0029c-4.177 1.1865-6.0778 7.0344-2.297 11.059l9.561 3.388c-4.3099-5.0614-2.2655-9.46 3.1473-11.444z"/>
      </g>
      <path id="path5489" d="m409.4 330.31-2.9668 16.201 14.437 5.274 2.9702-16.816z" style="stroke-linejoin:round;stroke-dashoffset:3.003;stroke:#000000;stroke-linecap:round;stroke-width:.82220;fill:#ffffff"/>
      <path id="path5491" style="stroke-linejoin:round;stroke-dashoffset:3.003;stroke:#000000;stroke-linecap:round;stroke-width:.82220;fill:#ffffff" d="m428.74 336.74-2.9667 16.543 14.437 5.274 2.9702-16.816z"/>
      <path id="path5493" style="stroke-linejoin:round;stroke-dashoffset:3.003;stroke:#000000;stroke-linecap:round;stroke-width:.82220;fill:#ffffff" d="m391.85 324.36-3.0194 16.727 14.147 4.4062 2.9702-16.816z"/>
      <path id="path5495" d="m372.8 317.94-2.9667 16.543 14.779 4.2483 2.9702-16.474z" style="stroke-linejoin:round;stroke-dashoffset:3.003;stroke:#000000;stroke-linecap:round;stroke-width:.82220;fill:#ffffff"/>
      <path id="path5497" style="stroke-linejoin:round;stroke-dashoffset:3.003;stroke:#000000;stroke-linecap:round;stroke-width:.82220;fill:#ffffff" d="m406.02 351.24-2.9668 16.543 14.147 4.6954 3.2595-16.237z"/>
      <path id="path5499" d="m425.31 357.91-2.9668 16.885 14.489 5.0374 2.9702-16.816z" style="stroke-linejoin:round;stroke-dashoffset:3.003;stroke:#000000;stroke-linecap:round;stroke-width:.82220;fill:#ffffff"/>
      <path id="path5501" d="m388.28 345.44-3.1224 16.058 14.437 5.274 2.9702-16.816z" style="stroke-linejoin:round;stroke-dashoffset:3.003;stroke:#000000;stroke-linecap:round;stroke-width:.82220;fill:#ffffff"/>
      <path id="path5503" style="stroke-linejoin:round;stroke-dashoffset:3.003;stroke:#000000;stroke-linecap:round;stroke-width:.82220;fill:#ffffff" d="m369.16 338.71-2.8736 16.201 14.934 5.0878 2.9702-16.816z"/>
      <path id="path5505" d="m402.12 373.31-3.4921 16.84 13.542 4.1879 3.654-16.132z" style="stroke-linejoin:round;stroke-dashoffset:3.003;stroke:#000000;stroke-linecap:round;stroke-width:.82220;fill:#ffffff"/>
      <path id="path5507" style="stroke-linejoin:round;stroke-dashoffset:3.003;stroke:#000000;stroke-linecap:round;stroke-width:.82220;fill:#ffffff" d="m420.62 379.97-3.5453 15.859 14.437 5.274 3.5488-16.527z"/>
      <path id="path5509" style="stroke-linejoin:round;stroke-dashoffset:3.003;stroke:#000000;stroke-linecap:round;stroke-width:.82220;fill:#ffffff" d="m383.89 367.2-3.3613 16.596 13.753 4.2483 3.5488-16.816z"/>
      <path id="path5511" d="m364.43 359.8-2.9667 17.227 14.147 4.8268 3.5488-17.105z" style="stroke-linejoin:round;stroke-dashoffset:3.003;stroke:#000000;stroke-linecap:round;stroke-width:.82220;fill:#ffffff"/>
      <path id="path5518" d="m379.13 387.8-4.4658 17.622 14.095 4.9321 4.2326-17.842z" style="stroke-linejoin:round;stroke-dashoffset:3.003;stroke:#000000;stroke-linecap:round;stroke-width:.82220;fill:#ffffff"/>
      <path id="path5520" style="stroke-linejoin:round;stroke-dashoffset:3.003;stroke:#000000;stroke-linecap:round;stroke-width:.82220;fill:#ffffff" d="m359.55 381.24-3.8346 16.91 14.673 4.7487 3.654-17.158z"/>
      <path id="path5522" style="stroke-linejoin:round;stroke-dashoffset:3.003;stroke:#000000;stroke-linecap:round;stroke-width:.82220;fill:#ffffff" d="m348.81 332.64-2.6775 16.833 14.779 4.2483 2.6809-16.527z"/>
      <path id="path5524" d="m344.54 354.63-2.8964 16.061 14.437 4.6954 2.9702-16.237z" style="stroke-linejoin:round;stroke-dashoffset:3.003;stroke:#000000;stroke-linecap:round;stroke-width:.82220;fill:#ffffff"/>
      <path id="path5526" style="stroke-linejoin:round;stroke-dashoffset:3.003;stroke:#000000;stroke-linecap:round;stroke-width:.82220;fill:#ffffff" d="m340.75 375.48-3.5453 15.859 13.115 5.0999 4.1678-16.735z"/>
      <path id="path5528" d="m322.72 368.31-3.2034 16.254 13.132 4.6833 3.5083-16.359z" style="stroke-linejoin:round;stroke-dashoffset:3.003;stroke:#000000;stroke-linecap:round;stroke-width:.82220;fill:#ffffff"/>
      <path id="path5530" style="stroke-linejoin:round;stroke-dashoffset:3.003;stroke:#000000;stroke-linecap:round;stroke-width:.82220;fill:#ffffff" d="m325.95 348.4-2.8615 15.641 13.937 4.5724 2.6809-16.237z"/>
      <path id="path5532" d="m329.28 326.83-2.6248 16.491 14.437 4.5902 2.9702-16.816z" style="stroke-linejoin:round;stroke-dashoffset:3.003;stroke:#000000;stroke-linecap:round;stroke-width:.82220;fill:#ffffff"/>
      <path id="path5534" style="stroke-linejoin:round;stroke-dashoffset:3.003;stroke:#000000;stroke-linecap:round;stroke-width:.82220;fill:#ffffff" d="m397.37 394.82-3.9924 17.227 13.069 5.274 4.0485-17.947z"/>
      <path id="path5555" d="m445.42 472.19c2.111-3.5184 23.925-39.757 23.925-39.757l16.888 5.2775-14.77-110.83z" style="stroke-linejoin:round;stroke-dashoffset:3.003;stroke:#000000;stroke-linecap:round;stroke-width:1.3155;fill:#ffffff"/>
      <path id="path5557" d="m469.35 432.43-15.644-7.8793" style="stroke-linejoin:round;stroke-dashoffset:3.003;stroke:#000000;stroke-linecap:round;stroke-width:.82220;fill:#ffffff"/>
    </g>
  </g>
  <g id="layer1" transform="matrix(2.21034, 0, 0, 2.101705, 233.904266, -370.819641)" style="">
    <rect style="opacity:0.97000002;fill:#ffffff;fill-opacity:1;fill-rule:evenodd;stroke:#000000;stroke-width:0.83998829;stroke-linecap:round;stroke-linejoin:round;stroke-miterlimit:4;stroke-dasharray:none;stroke-dashoffset:0;stroke-opacity:1;paint-order:fill markers stroke" id="rect3232" width="7.7750688" height="16.929356" x="3.9398417" y="269.20609" ry="3.2555687"/>
    <path style="opacity:0.97000002;fill:none;fill-opacity:1;fill-rule:evenodd;stroke:#000000;stroke-width:1.0379132;stroke-linecap:round;stroke-linejoin:round;stroke-miterlimit:4;stroke-dasharray:none;stroke-dashoffset:0;stroke-opacity:1;paint-order:fill markers stroke" d="m 13.348958,278.82416 c 0,3.17141 -0.01448,6.1019 -1.722879,7.68761 -1.7083838,1.5857 -5.8890256,1.5857 -7.59741,0 -1.7083844,-1.58571 -1.7228789,-4.5162 -1.7228789,-7.68761" id="path3234"/>
    <path style="fill:#ffffff;stroke:#000000;stroke-width:1.0379132;stroke-linecap:butt;stroke-linejoin:miter;stroke-miterlimit:4;stroke-dasharray:none;stroke-opacity:1" d="m 7.8273742,287.70104 v 4.66893" id="path3253"/>
    <path style="opacity:1;fill:#000000;fill-opacity:1;fill-rule:evenodd;stroke:#000000;stroke-width:1.0379132;stroke-linecap:butt;stroke-linejoin:round;stroke-miterlimit:4;stroke-dasharray:none;stroke-dashoffset:0;stroke-opacity:1;paint-order:fill markers stroke" id="path3258" d="m 13.52212,-295.88953 a 5.6947436,3.5195448 0 0 1 -2.847372,3.04802 5.6947436,3.5195448 0 0 1 -5.6947436,0 5.6947436,3.5195448 0 0 1 -2.8473717,-3.04802" transform="scale(1,-1)"/>
  </g>
  <path id="path741" style="fill-rule: evenodd; stroke: rgb(0, 0, 0); stroke-width: 1.2048; fill: rgb(255, 255, 255);" d="M 136.287 56.316 C 136.441 29.759 108.983 12.985 86.864 26.125 C 76.473 32.298 70.085 43.842 70.158 56.316 C 70.005 82.874 97.461 99.648 119.582 86.508 C 129.972 80.335 136.36 68.791 136.287 56.316 L 103.224 56.316 L 136.287 56.316 Z"/>
  <path id="path743" style="stroke-linejoin: round; stroke: rgb(76, 76, 76); stroke-linecap: round; stroke-width: 5; fill: none;" d="M 103.051 55.955 L 103.051 30.47"/>
  <path id="path744" style="stroke-linejoin: round; stroke: rgb(76, 76, 76); stroke-linecap: round; stroke-width: 5; fill: none;" d="M 104.489 56.436 L 120.833 66.282"/>
  <path id="path742" style="stroke-linejoin: round; fill-rule: evenodd; stroke: rgb(51, 51, 51); stroke-linecap: round; stroke-width: 3.0256; fill: rgb(51, 51, 51);" d="M 106.22 56.318 C 106.22 53.911 103.723 52.407 101.726 53.611 C 100.8 54.168 100.228 55.201 100.228 56.318 C 100.191 58.723 102.664 60.269 104.68 59.099 C 105.644 58.539 106.236 57.47 106.219 56.318 L 103.224 56.318 L 106.22 56.318 Z"/>
</svg>